<svg width="24" height="24" viewBox="0 0 24 24" fill="none" xmlns="http://www.w3.org/2000/svg">
<path d="M11.1899 2.25C10.9299 2.25 10.6699 2.31 10.4199 2.4L3.05988 5.45C2.57065 5.65035 2.181 6.03678 1.9766 6.52433C1.7722 7.01189 1.76978 7.56066 1.96988 8.05L6.92988 20C7.07639 20.3625 7.32592 20.674 7.6476 20.8962C7.96929 21.1183 8.34903 21.2414 8.73988 21.25C8.99988 21.25 9.26988 21.22 9.52988 21.1L16.8999 18.05C17.2556 17.899 17.5605 17.6492 17.7786 17.3302C17.9966 17.0111 18.1185 16.6363 18.1299 16.25C18.1399 16 18.0899 15.71 17.9999 15.45L12.9999 3.5C12.8585 3.13402 12.6103 2.81906 12.2875 2.59612C11.9647 2.37317 11.5822 2.25257 11.1899 2.25ZM14.6699 2.25L18.1199 10.6V4.25C18.1199 3.71957 17.9092 3.21086 17.5341 2.83579C17.159 2.46071 16.6503 2.25 16.1199 2.25H14.6699ZM20.1299 3.79V12.82L22.5599 6.96C22.6595 6.71777 22.7103 6.45825 22.7094 6.19633C22.7086 5.93441 22.656 5.67524 22.5547 5.43369C22.4534 5.19214 22.3055 4.97295 22.1193 4.78871C21.9332 4.60446 21.7125 4.45877 21.4699 4.36L20.1299 3.79ZM11.1899 4.22L16.1699 16.24L8.77988 19.3L3.79988 7.29" fill="#A8B0B9"/>
</svg>
