<svg width="24" height="24" viewBox="0 0 24 24" fill="none" xmlns="http://www.w3.org/2000/svg">
<path d="M22.1836 11.8359L13.1273 2.78437L12.5203 2.17734C12.382 2.03994 12.1949 1.96283 12 1.96283C11.805 1.96283 11.618 2.03994 11.4797 2.17734L1.81639 11.8359C1.67467 11.9771 1.56266 12.1452 1.48698 12.3304C1.41131 12.5156 1.37349 12.714 1.37577 12.9141C1.38514 13.7391 2.07186 14.3977 2.89686 14.3977H3.89296V22.0312H20.107V14.3977H21.1242C21.525 14.3977 21.9023 14.2406 22.1859 13.957C22.3256 13.8178 22.4362 13.6523 22.5114 13.4701C22.5867 13.2878 22.625 13.0925 22.6242 12.8953C22.6242 12.4969 22.4672 12.1195 22.1836 11.8359ZM13.3125 20.3437H10.6875V15.5625H13.3125V20.3437ZM18.4195 12.7102V20.3437H14.8125V15C14.8125 14.482 14.393 14.0625 13.875 14.0625H10.125C9.60702 14.0625 9.18749 14.482 9.18749 15V20.3437H5.58046V12.7102H3.33046L12.0023 4.04531L12.5437 4.58672L20.6719 12.7102H18.4195Z" fill="#A8B0B9"/>
</svg>
