<svg width="40" height="40" viewBox="0 0 40 40" fill="none" xmlns="http://www.w3.org/2000/svg">
<path d="M19.9998 9.99998V12.9833C19.9998 13.7333 20.8998 14.1 21.4165 13.5666L26.0665 8.91665C26.3998 8.58331 26.3998 8.06665 26.0665 7.73331L21.4165 3.08332C20.8998 2.56665 19.9998 2.93332 19.9998 3.68332V6.66665C12.6332 6.66665 6.6665 12.6333 6.6665 20C6.6665 21.7333 6.99984 23.4 7.6165 24.9166C8.0665 26.0333 9.49984 26.3333 10.3498 25.4833C10.7998 25.0333 10.9832 24.35 10.7332 23.75C10.2498 22.6 9.99984 21.3166 9.99984 20C9.99984 14.4833 14.4832 9.99998 19.9998 9.99998ZM29.6498 14.5166C29.1998 14.9666 29.0165 15.6666 29.2665 16.25C29.7332 17.4166 29.9998 18.6833 29.9998 20C29.9998 25.5166 25.5165 30 19.9998 30V27.0166C19.9998 26.2666 19.0998 25.9 18.5832 26.4333L13.9332 31.0833C13.5998 31.4166 13.5998 31.9333 13.9332 32.2666L18.5832 36.9166C19.0998 37.4333 19.9998 37.0666 19.9998 36.3333V33.3333C27.3665 33.3333 33.3332 27.3666 33.3332 20C33.3332 18.2666 32.9998 16.6 32.3832 15.0833C31.9332 13.9666 30.4998 13.6666 29.6498 14.5166Z" fill="#F8A145"/>
</svg>
