<svg width="40" height="40" viewBox="0 0 40 40" fill="none" xmlns="http://www.w3.org/2000/svg">
<path d="M10.0664 29.375C10.1445 29.375 10.2227 29.3672 10.3008 29.3555L16.8711 28.2031C16.9492 28.1875 17.0234 28.1523 17.0781 28.0938L33.6367 11.5352C33.6729 11.499 33.7017 11.4561 33.7213 11.4088C33.7409 11.3616 33.751 11.3109 33.751 11.2598C33.751 11.2086 33.7409 11.1579 33.7213 11.1107C33.7017 11.0634 33.6729 11.0205 33.6367 10.9844L27.1445 4.48828C27.0703 4.41406 26.9727 4.375 26.8672 4.375C26.7617 4.375 26.6641 4.41406 26.5898 4.48828L10.0312 21.0469C9.97266 21.1055 9.9375 21.1758 9.92188 21.2539L8.76953 27.8242C8.73153 28.0335 8.74511 28.2489 8.80909 28.4517C8.87307 28.6545 8.98553 28.8387 9.13672 28.9883C9.39453 29.2383 9.71875 29.375 10.0664 29.375V29.375ZM12.6992 22.5625L26.8672 8.39844L29.7305 11.2617L15.5625 25.4258L12.0898 26.0391L12.6992 22.5625V22.5625ZM34.375 32.6562H5.625C4.93359 32.6562 4.375 33.2148 4.375 33.9062V35.3125C4.375 35.4844 4.51562 35.625 4.6875 35.625H35.3125C35.4844 35.625 35.625 35.4844 35.625 35.3125V33.9062C35.625 33.2148 35.0664 32.6562 34.375 32.6562Z" fill="#F8A145"/>
</svg>
